{"title":"Lonelyhearts (1958) Montgomery Clift Eng","uid":5085745,"size":1174661628,"categoryP":"video","categoryS":"movies","magnet":"?xt=urn:btih:abc335b7c9199a039fa5b9e4f479f47d2c2106cf&amp;dn=Lonelyhearts+%281958%29+Montgomery+Clift+Eng&amp;tr=udp%3A%2F%2Ftracker.openbittorrent.com%3A80&amp;tr=udp%3A%2F%2Fopen.demonii.com%3A1337&amp;tr=udp%3A%2F%2Ftracker.coppersurfer.tk%3A6969&amp;tr=udp%3A%2F%2Fexodus.desync.com%3A6969","seeders":0,"leechers":2,"uploader":"johnefp","files":3,"time":1252697901,"description":"Eager to land a journalistic position, Adam White goes to work as an advice-giving newspaper columnist\n\n\n\n &lt;a href=&quot;\nhttp://www.imdb.com/title/tt0053017/&quot; rel=&quot;nofollow&quot; target=&quot;_NEW&quot;&gt;\nhttp://www.imdb.com/title/tt0053017/&lt;/a&gt;\n\n\n\n\nAwards:\nNominated for Oscar. Another 1 nomination\n\n\n\n\nDirector:\nVincent J. Donehue\n\n\n\n\n\n\tMontgomery Clift\t... \tAdam White\n\n\tRobert Ryan\t... \tWilliam Shrike\n\n\tMyrna Loy\t... \tFlorence Shrike\n\tDolores Hart\t... \tJusty Sargeant\n\n\tMaureen Stapleton\t... \tFay Doyle\n\n\n\n\nVideo\n      Format : MPEG-4 Visual\n      Format profile : Simple@L3\n      Format settings, BVOP : No\n      Format settings, QPel : No\n      Format settings, GMC : No warppoints\n      Format settings, Matrix : Default\n      Codec ID : XVID\n      Codec ID/Hint : XviD\n      Duration : 1h 43mn\n      Bit rate : 1 402 Kbps\n      Width : 640 pixels\n      Height : 496 pixels\n      Display aspect ratio : 1.290\n      Frame rate : 23.976 fps\n      Resolution : 24 bits\n      Colorimetry : 4:2:0\n      Scan type : Progressive\n      Bits/(Pixel*Frame) : 0.184\n      Stream size : 1.01 GiB (92%)\n      Writing library : XviD 1.2.0SMP (UTC 2006-01-08)\n   Audio\n      Format : MPEG Audio\n      Format version : Version 1\n      Format profile : Layer 3\n      Codec ID : 55\n      Codec ID/Hint : MP3\n      Duration : 1h 43mn\n      Bit rate mode : Variable\n      Bit rate : 103 Kbps\n      Channel(s) : 2 channels\n      Sampling rate : 48.0 KHz\n      Resolution : 16 bits\n      Stream size : 76.3 MiB (7%)\n      Alignment : Aligned on interleaves\n      Interleave, duration : 24 ms (0.58 video frame)\n      Interleave, preload duration : 590 ms\n      Language : ???\n\n\n\n","torrent":{"xt":"urn:btih:abc335b7c9199a039fa5b9e4f479f47d2c2106cf","amp;dn":"Lonelyhearts+%281958%29+Montgomery+Clift+Eng","amp;tr":["udp%3A%2F%2Ftracker.openbittorrent.com%3A80","udp%3A%2F%2Fopen.demonii.com%3A1337","udp%3A%2F%2Ftracker.coppersurfer.tk%3A6969","udp%3A%2F%2Fexodus.desync.com%3A6969"],"infoHash":"abc335b7c9199a039fa5b9e4f479f47d2c2106cf","infoHashBuffer":{"type":"Buffer","data":[171,195,53,183,201,25,154,3,159,165,185,228,244,121,244,125,44,33,6,207]},"announce":[],"urlList":[]}}